<?xml version="1.0" encoding="utf-8" ?>
<svg baseProfile="full" height="25.41px" version="1.1" width="25.41px" xmlns="http://www.w3.org/2000/svg" xmlns:ev="http://www.w3.org/2001/xml-events" xmlns:xlink="http://www.w3.org/1999/xlink"><defs /><rect fill="black" height="100%" width="100%" x="0" y="0" /><rect fill="white" height="4.7619047619%" width="4.7619047619%" x="12.1" y="13.309999999999999" /><rect fill="white" height="4.7619047619%" width="4.7619047619%" x="13.31" y="13.309999999999999" /><rect fill="white" height="4.7619047619%" width="4.7619047619%" x="15.73" y="13.309999999999999" /><rect fill="white" height="4.7619047619%" width="4.7619047619%" x="16.94" y="13.309999999999999" /><rect fill="white" height="4.7619047619%" width="4.7619047619%" x="18.15" y="13.309999999999999" /><rect fill="white" height="4.7619047619%" width="4.7619047619%" x="22.99" y="13.309999999999999" /><rect fill="white" height="4.7619047619%" width="4.7619047619%" x="12.1" y="14.52" /><rect fill="white" height="4.7619047619%" width="4.7619047619%" x="14.52" y="14.52" /><rect fill="white" height="4.7619047619%" width="4.7619047619%" x="19.36" y="14.52" /><rect fill="white" height="4.7619047619%" width="4.7619047619%" x="20.57" y="14.52" /><rect fill="white" height="4.7619047619%" width="4.7619047619%" x="21.78" y="14.52" /><rect fill="white" height="4.7619047619%" width="4.7619047619%" x="24.2" y="14.52" /><rect fill="white" height="4.7619047619%" width="4.7619047619%" x="12.1" y="15.729999999999999" /><rect fill="white" height="4.7619047619%" width="4.7619047619%" x="13.31" y="15.729999999999999" /><rect fill="white" height="4.7619047619%" width="4.7619047619%" x="15.73" y="15.729999999999999" /><rect fill="white" height="4.7619047619%" width="4.7619047619%" x="16.94" y="15.729999999999999" /><rect fill="white" height="4.7619047619%" width="4.7619047619%" x="18.15" y="15.729999999999999" /><rect fill="white" height="4.7619047619%" width="4.7619047619%" x="22.99" y="15.729999999999999" /><rect fill="white" height="4.7619047619%" width="4.7619047619%" x="12.1" y="16.939999999999998" /><rect fill="white" height="4.7619047619%" width="4.7619047619%" x="13.31" y="16.939999999999998" /><rect fill="white" height="4.7619047619%" width="4.7619047619%" x="15.73" y="16.939999999999998" /><rect fill="white" height="4.7619047619%" width="4.7619047619%" x="16.94" y="16.939999999999998" /><rect fill="white" height="4.7619047619%" width="4.7619047619%" x="18.15" y="16.939999999999998" /><rect fill="white" height="4.7619047619%" width="4.7619047619%" x="22.99" y="16.939999999999998" /><rect fill="white" height="4.7619047619%" width="4.7619047619%" x="12.1" y="18.15" /><rect fill="white" height="4.7619047619%" width="4.7619047619%" x="13.31" y="18.15" /><rect fill="white" height="4.7619047619%" width="4.7619047619%" x="15.73" y="18.15" /><rect fill="white" height="4.7619047619%" width="4.7619047619%" x="16.94" y="18.15" /><rect fill="white" height="4.7619047619%" width="4.7619047619%" x="18.15" y="18.15" /><rect fill="white" height="4.7619047619%" width="4.7619047619%" x="22.99" y="18.15" /><rect fill="white" height="4.7619047619%" width="4.7619047619%" x="12.1" y="19.36" /><rect fill="white" height="4.7619047619%" width="4.7619047619%" x="14.52" y="19.36" /><rect fill="white" height="4.7619047619%" width="4.7619047619%" x="19.36" y="19.36" /><rect fill="white" height="4.7619047619%" width="4.7619047619%" x="20.57" y="19.36" /><rect fill="white" height="4.7619047619%" width="4.7619047619%" x="21.78" y="19.36" /><rect fill="white" height="4.7619047619%" width="4.7619047619%" x="24.2" y="19.36" /><rect fill="white" height="4.7619047619%" width="4.7619047619%" x="12.1" y="20.57" /><rect fill="white" height="4.7619047619%" width="4.7619047619%" x="14.52" y="20.57" /><rect fill="white" height="4.7619047619%" width="4.7619047619%" x="19.36" y="20.57" /><rect fill="white" height="4.7619047619%" width="4.7619047619%" x="20.57" y="20.57" /><rect fill="white" height="4.7619047619%" width="4.7619047619%" x="21.78" y="20.57" /><rect fill="white" height="4.7619047619%" width="4.7619047619%" x="24.2" y="20.57" /><rect fill="white" height="4.7619047619%" width="4.7619047619%" x="12.1" y="21.78" /><rect fill="white" height="4.7619047619%" width="4.7619047619%" x="14.52" y="21.78" /><rect fill="white" height="4.7619047619%" width="4.7619047619%" x="19.36" y="21.78" /><rect fill="white" height="4.7619047619%" width="4.7619047619%" x="20.57" y="21.78" /><rect fill="white" height="4.7619047619%" width="4.7619047619%" x="21.78" y="21.78" /><rect fill="white" height="4.7619047619%" width="4.7619047619%" x="24.2" y="21.78" /><rect fill="white" height="4.7619047619%" width="4.7619047619%" x="12.1" y="22.99" /><rect fill="white" height="4.7619047619%" width="4.7619047619%" x="13.31" y="22.99" /><rect fill="white" height="4.7619047619%" width="4.7619047619%" x="15.73" y="22.99" /><rect fill="white" height="4.7619047619%" width="4.7619047619%" x="16.94" y="22.99" /><rect fill="white" height="4.7619047619%" width="4.7619047619%" x="18.15" y="22.99" /><rect fill="white" height="4.7619047619%" width="4.7619047619%" x="22.99" y="22.99" /><rect fill="white" height="4.7619047619%" width="4.7619047619%" x="12.1" y="24.2" /><rect fill="white" height="4.7619047619%" width="4.7619047619%" x="14.52" y="24.2" /><rect fill="white" height="4.7619047619%" width="4.7619047619%" x="19.36" y="24.2" /><rect fill="white" height="4.7619047619%" width="4.7619047619%" x="20.57" y="24.2" /><rect fill="white" height="4.7619047619%" width="4.7619047619%" x="21.78" y="24.2" /><rect fill="white" height="4.7619047619%" width="4.7619047619%" x="24.2" y="24.2" /><rect fill="white" height="4.7619047619%" width="4.7619047619%" x="12.1" y="0.0" /><rect fill="white" height="4.7619047619%" width="4.7619047619%" x="13.31" y="0.0" /><rect fill="white" height="4.7619047619%" width="4.7619047619%" x="15.73" y="0.0" /><rect fill="white" height="4.7619047619%" width="4.7619047619%" x="16.94" y="0.0" /><rect fill="white" height="4.7619047619%" width="4.7619047619%" x="18.15" y="0.0" /><rect fill="white" height="4.7619047619%" width="4.7619047619%" x="22.99" y="0.0" /><rect fill="white" height="4.7619047619%" width="4.7619047619%" x="12.1" y="1.2100000000000009" /><rect fill="white" height="4.7619047619%" width="4.7619047619%" x="14.52" y="1.2100000000000009" /><rect fill="white" height="4.7619047619%" width="4.7619047619%" x="19.36" y="1.2100000000000009" /><rect fill="white" height="4.7619047619%" width="4.7619047619%" x="20.57" y="1.2100000000000009" /><rect fill="white" height="4.7619047619%" width="4.7619047619%" x="21.78" y="1.2100000000000009" /><rect fill="white" height="4.7619047619%" width="4.7619047619%" x="24.2" y="1.2100000000000009" /><rect fill="white" height="4.7619047619%" width="4.7619047619%" x="12.1" y="2.419999999999998" /><rect fill="white" height="4.7619047619%" width="4.7619047619%" x="13.31" y="2.419999999999998" /><rect fill="white" height="4.7619047619%" width="4.7619047619%" x="15.73" y="2.419999999999998" /><rect fill="white" height="4.7619047619%" width="4.7619047619%" x="16.94" y="2.419999999999998" /><rect fill="white" height="4.7619047619%" width="4.7619047619%" x="18.15" y="2.419999999999998" /><rect fill="white" height="4.7619047619%" width="4.7619047619%" x="22.99" y="2.419999999999998" /><rect fill="white" height="4.7619047619%" width="4.7619047619%" x="12.1" y="3.629999999999999" /><rect fill="white" height="4.7619047619%" width="4.7619047619%" x="13.31" y="3.629999999999999" /><rect fill="white" height="4.7619047619%" width="4.7619047619%" x="15.73" y="3.629999999999999" /><rect fill="white" height="4.7619047619%" width="4.7619047619%" x="16.94" y="3.629999999999999" /><rect fill="white" height="4.7619047619%" width="4.7619047619%" x="18.15" y="3.629999999999999" /><rect fill="white" height="4.7619047619%" width="4.7619047619%" x="22.99" y="3.629999999999999" /><rect fill="white" height="4.7619047619%" width="4.7619047619%" x="12.1" y="4.84" /><rect fill="white" height="4.7619047619%" width="4.7619047619%" x="13.31" y="4.84" /><rect fill="white" height="4.7619047619%" width="4.7619047619%" x="15.73" y="4.84" /><rect fill="white" height="4.7619047619%" width="4.7619047619%" x="16.94" y="4.84" /><rect fill="white" height="4.7619047619%" width="4.7619047619%" x="18.15" y="4.84" /><rect fill="white" height="4.7619047619%" width="4.7619047619%" x="22.99" y="4.84" /><rect fill="white" height="4.7619047619%" width="4.7619047619%" x="12.1" y="6.050000000000001" /><rect fill="white" height="4.7619047619%" width="4.7619047619%" x="14.52" y="6.050000000000001" /><rect fill="white" height="4.7619047619%" width="4.7619047619%" x="19.36" y="6.050000000000001" /><rect fill="white" height="4.7619047619%" width="4.7619047619%" x="20.57" y="6.050000000000001" /><rect fill="white" height="4.7619047619%" width="4.7619047619%" x="21.78" y="6.050000000000001" /><rect fill="white" height="4.7619047619%" width="4.7619047619%" x="24.2" y="6.050000000000001" /><rect fill="white" height="4.7619047619%" width="4.7619047619%" x="12.1" y="7.259999999999998" /><rect fill="white" height="4.7619047619%" width="4.7619047619%" x="14.52" y="7.259999999999998" /><rect fill="white" height="4.7619047619%" width="4.7619047619%" x="19.36" y="7.259999999999998" /><rect fill="white" height="4.7619047619%" width="4.7619047619%" x="20.57" y="7.259999999999998" /><rect fill="white" height="4.7619047619%" width="4.7619047619%" x="21.78" y="7.259999999999998" /><rect fill="white" height="4.7619047619%" width="4.7619047619%" x="24.2" y="7.259999999999998" /><rect fill="white" height="4.7619047619%" width="4.7619047619%" x="12.1" y="8.469999999999999" /><rect fill="white" height="4.7619047619%" width="4.7619047619%" x="14.52" y="8.469999999999999" /><rect fill="white" height="4.7619047619%" width="4.7619047619%" x="19.36" y="8.469999999999999" /><rect fill="white" height="4.7619047619%" width="4.7619047619%" x="20.57" y="8.469999999999999" /><rect fill="white" height="4.7619047619%" width="4.7619047619%" x="21.78" y="8.469999999999999" /><rect fill="white" height="4.7619047619%" width="4.7619047619%" x="24.2" y="8.469999999999999" /><rect fill="white" height="4.7619047619%" width="4.7619047619%" x="12.1" y="9.68" /><rect fill="white" height="4.7619047619%" width="4.7619047619%" x="13.31" y="9.68" /><rect fill="white" height="4.7619047619%" width="4.7619047619%" x="15.73" y="9.68" /><rect fill="white" height="4.7619047619%" width="4.7619047619%" x="16.94" y="9.68" /><rect fill="white" height="4.7619047619%" width="4.7619047619%" x="18.15" y="9.68" /><rect fill="white" height="4.7619047619%" width="4.7619047619%" x="22.99" y="9.68" /><rect fill="white" height="4.7619047619%" width="4.7619047619%" x="12.1" y="10.889999999999999" /><rect fill="white" height="4.7619047619%" width="4.7619047619%" x="14.52" y="10.889999999999999" /><rect fill="white" height="4.7619047619%" width="4.7619047619%" x="19.36" y="10.889999999999999" /><rect fill="white" height="4.7619047619%" width="4.7619047619%" x="20.57" y="10.889999999999999" /><rect fill="white" height="4.7619047619%" width="4.7619047619%" x="21.78" y="10.889999999999999" /><rect fill="white" height="4.7619047619%" width="4.7619047619%" x="24.2" y="10.889999999999999" /><rect fill="white" height="4.7619047619%" width="4.7619047619%" x="0.0" y="13.309999999999999" /><rect fill="white" height="4.7619047619%" width="4.7619047619%" x="2.42" y="13.309999999999999" /><rect fill="white" height="4.7619047619%" width="4.7619047619%" x="3.63" y="13.309999999999999" /><rect fill="white" height="4.7619047619%" width="4.7619047619%" x="4.84" y="13.309999999999999" /><rect fill="white" height="4.7619047619%" width="4.7619047619%" x="9.68" y="13.309999999999999" /><rect fill="white" height="4.7619047619%" width="4.7619047619%" x="1.21" y="14.52" /><rect fill="white" height="4.7619047619%" width="4.7619047619%" x="6.05" y="14.52" /><rect fill="white" height="4.7619047619%" width="4.7619047619%" x="7.26" y="14.52" /><rect fill="white" height="4.7619047619%" width="4.7619047619%" x="8.47" y="14.52" /><rect fill="white" height="4.7619047619%" width="4.7619047619%" x="10.89" y="14.52" /><rect fill="white" height="4.7619047619%" width="4.7619047619%" x="0.0" y="15.729999999999999" /><rect fill="white" height="4.7619047619%" width="4.7619047619%" x="2.42" y="15.729999999999999" /><rect fill="white" height="4.7619047619%" width="4.7619047619%" x="3.63" y="15.729999999999999" /><rect fill="white" height="4.7619047619%" width="4.7619047619%" x="4.84" y="15.729999999999999" /><rect fill="white" height="4.7619047619%" width="4.7619047619%" x="9.68" y="15.729999999999999" /><rect fill="white" height="4.7619047619%" width="4.7619047619%" x="0.0" y="16.939999999999998" /><rect fill="white" height="4.7619047619%" width="4.7619047619%" x="2.42" y="16.939999999999998" /><rect fill="white" height="4.7619047619%" width="4.7619047619%" x="3.63" y="16.939999999999998" /><rect fill="white" height="4.7619047619%" width="4.7619047619%" x="4.84" y="16.939999999999998" /><rect fill="white" height="4.7619047619%" width="4.7619047619%" x="9.68" y="16.939999999999998" /><rect fill="white" height="4.7619047619%" width="4.7619047619%" x="0.0" y="18.15" /><rect fill="white" height="4.7619047619%" width="4.7619047619%" x="2.42" y="18.15" /><rect fill="white" height="4.7619047619%" width="4.7619047619%" x="3.63" y="18.15" /><rect fill="white" height="4.7619047619%" width="4.7619047619%" x="4.84" y="18.15" /><rect fill="white" height="4.7619047619%" width="4.7619047619%" x="9.68" y="18.15" /><rect fill="white" height="4.7619047619%" width="4.7619047619%" x="1.21" y="19.36" /><rect fill="white" height="4.7619047619%" width="4.7619047619%" x="6.05" y="19.36" /><rect fill="white" height="4.7619047619%" width="4.7619047619%" x="7.26" y="19.36" /><rect fill="white" height="4.7619047619%" width="4.7619047619%" x="8.47" y="19.36" /><rect fill="white" height="4.7619047619%" width="4.7619047619%" x="10.89" y="19.36" /><rect fill="white" height="4.7619047619%" width="4.7619047619%" x="1.21" y="20.57" /><rect fill="white" height="4.7619047619%" width="4.7619047619%" x="6.05" y="20.57" /><rect fill="white" height="4.7619047619%" width="4.7619047619%" x="7.26" y="20.57" /><rect fill="white" height="4.7619047619%" width="4.7619047619%" x="8.47" y="20.57" /><rect fill="white" height="4.7619047619%" width="4.7619047619%" x="10.89" y="20.57" /><rect fill="white" height="4.7619047619%" width="4.7619047619%" x="1.21" y="21.78" /><rect fill="white" height="4.7619047619%" width="4.7619047619%" x="6.05" y="21.78" /><rect fill="white" height="4.7619047619%" width="4.7619047619%" x="7.26" y="21.78" /><rect fill="white" height="4.7619047619%" width="4.7619047619%" x="8.47" y="21.78" /><rect fill="white" height="4.7619047619%" width="4.7619047619%" x="10.89" y="21.78" /><rect fill="white" height="4.7619047619%" width="4.7619047619%" x="0.0" y="22.99" /><rect fill="white" height="4.7619047619%" width="4.7619047619%" x="2.42" y="22.99" /><rect fill="white" height="4.7619047619%" width="4.7619047619%" x="3.63" y="22.99" /><rect fill="white" height="4.7619047619%" width="4.7619047619%" x="4.84" y="22.99" /><rect fill="white" height="4.7619047619%" width="4.7619047619%" x="9.68" y="22.99" /><rect fill="white" height="4.7619047619%" width="4.7619047619%" x="1.21" y="24.2" /><rect fill="white" height="4.7619047619%" width="4.7619047619%" x="6.05" y="24.2" /><rect fill="white" height="4.7619047619%" width="4.7619047619%" x="7.26" y="24.2" /><rect fill="white" height="4.7619047619%" width="4.7619047619%" x="8.47" y="24.2" /><rect fill="white" height="4.7619047619%" width="4.7619047619%" x="10.89" y="24.2" /><rect fill="white" height="4.7619047619%" width="4.7619047619%" x="0.0" y="0.0" /><rect fill="white" height="4.7619047619%" width="4.7619047619%" x="2.42" y="0.0" /><rect fill="white" height="4.7619047619%" width="4.7619047619%" x="3.63" y="0.0" /><rect fill="white" height="4.7619047619%" width="4.7619047619%" x="4.84" y="0.0" /><rect fill="white" height="4.7619047619%" width="4.7619047619%" x="9.68" y="0.0" /><rect fill="white" height="4.7619047619%" width="4.7619047619%" x="1.21" y="1.2100000000000009" /><rect fill="white" height="4.7619047619%" width="4.7619047619%" x="6.05" y="1.2100000000000009" /><rect fill="white" height="4.7619047619%" width="4.7619047619%" x="7.26" y="1.2100000000000009" /><rect fill="white" height="4.7619047619%" width="4.7619047619%" x="8.47" y="1.2100000000000009" /><rect fill="white" height="4.7619047619%" width="4.7619047619%" x="10.89" y="1.2100000000000009" /><rect fill="white" height="4.7619047619%" width="4.7619047619%" x="0.0" y="2.419999999999998" /><rect fill="white" height="4.7619047619%" width="4.7619047619%" x="2.42" y="2.419999999999998" /><rect fill="white" height="4.7619047619%" width="4.7619047619%" x="3.63" y="2.419999999999998" /><rect fill="white" height="4.7619047619%" width="4.7619047619%" x="4.84" y="2.419999999999998" /><rect fill="white" height="4.7619047619%" width="4.7619047619%" x="9.68" y="2.419999999999998" /><rect fill="white" height="4.7619047619%" width="4.7619047619%" x="0.0" y="3.629999999999999" /><rect fill="white" height="4.7619047619%" width="4.7619047619%" x="2.42" y="3.629999999999999" /><rect fill="white" height="4.7619047619%" width="4.7619047619%" x="3.63" y="3.629999999999999" /><rect fill="white" height="4.7619047619%" width="4.7619047619%" x="4.84" y="3.629999999999999" /><rect fill="white" height="4.7619047619%" width="4.7619047619%" x="9.68" y="3.629999999999999" /><rect fill="white" height="4.7619047619%" width="4.7619047619%" x="0.0" y="4.84" /><rect fill="white" height="4.7619047619%" width="4.7619047619%" x="2.42" y="4.84" /><rect fill="white" height="4.7619047619%" width="4.7619047619%" x="3.63" y="4.84" /><rect fill="white" height="4.7619047619%" width="4.7619047619%" x="4.84" y="4.84" /><rect fill="white" height="4.7619047619%" width="4.7619047619%" x="9.68" y="4.84" /><rect fill="white" height="4.7619047619%" width="4.7619047619%" x="1.21" y="6.050000000000001" /><rect fill="white" height="4.7619047619%" width="4.7619047619%" x="6.05" y="6.050000000000001" /><rect fill="white" height="4.7619047619%" width="4.7619047619%" x="7.26" y="6.050000000000001" /><rect fill="white" height="4.7619047619%" width="4.7619047619%" x="8.47" y="6.050000000000001" /><rect fill="white" height="4.7619047619%" width="4.7619047619%" x="10.89" y="6.050000000000001" /><rect fill="white" height="4.7619047619%" width="4.7619047619%" x="1.21" y="7.259999999999998" /><rect fill="white" height="4.7619047619%" width="4.7619047619%" x="6.05" y="7.259999999999998" /><rect fill="white" height="4.7619047619%" width="4.7619047619%" x="7.26" y="7.259999999999998" /><rect fill="white" height="4.7619047619%" width="4.7619047619%" x="8.47" y="7.259999999999998" /><rect fill="white" height="4.7619047619%" width="4.7619047619%" x="10.89" y="7.259999999999998" /><rect fill="white" height="4.7619047619%" width="4.7619047619%" x="1.21" y="8.469999999999999" /><rect fill="white" height="4.7619047619%" width="4.7619047619%" x="6.05" y="8.469999999999999" /><rect fill="white" height="4.7619047619%" width="4.7619047619%" x="7.26" y="8.469999999999999" /><rect fill="white" height="4.7619047619%" width="4.7619047619%" x="8.47" y="8.469999999999999" /><rect fill="white" height="4.7619047619%" width="4.7619047619%" x="10.89" y="8.469999999999999" /><rect fill="white" height="4.7619047619%" width="4.7619047619%" x="0.0" y="9.68" /><rect fill="white" height="4.7619047619%" width="4.7619047619%" x="2.42" y="9.68" /><rect fill="white" height="4.7619047619%" width="4.7619047619%" x="3.63" y="9.68" /><rect fill="white" height="4.7619047619%" width="4.7619047619%" x="4.84" y="9.68" /><rect fill="white" height="4.7619047619%" width="4.7619047619%" x="9.68" y="9.68" /><rect fill="white" height="4.7619047619%" width="4.7619047619%" x="1.21" y="10.889999999999999" /><rect fill="white" height="4.7619047619%" width="4.7619047619%" x="6.05" y="10.889999999999999" /><rect fill="white" height="4.7619047619%" width="4.7619047619%" x="7.26" y="10.889999999999999" /><rect fill="white" height="4.7619047619%" width="4.7619047619%" x="8.47" y="10.889999999999999" /><rect fill="white" height="4.7619047619%" width="4.7619047619%" x="10.89" y="10.889999999999999" /></svg>